<svg width="47" height="48" viewBox="0 0 47 48" fill="none" xmlns="http://www.w3.org/2000/svg">
<g clip-path="url(#clip0_673_32)">
<path fill-rule="evenodd" clip-rule="evenodd" d="M9.82692 24.0005C9.82692 22.4765 10.0799 21.0145 10.5319 19.6445L2.62292 13.6045C1.03149 16.8386 0.206811 20.396 0.212924 24.0005C0.212924 27.7375 1.08092 31.2605 2.61992 34.3885L10.5249 28.3385C10.0635 26.9387 9.82788 25.4744 9.82692 24.0005Z" fill="#FBBC05"/>
<path fill-rule="evenodd" clip-rule="evenodd" d="M23.714 10.1333C27.025 10.1333 30.016 11.3073 32.366 13.2273L39.202 6.40032C35.036 2.77332 29.695 0.533321 23.714 0.533321C19.3275 0.519406 15.0253 1.73715 11.2968 4.04795C7.5683 6.35876 4.56338 9.66983 2.62402 13.6043L10.532 19.6443C11.4466 16.8722 13.2137 14.4599 15.5811 12.752C17.9484 11.0441 20.7949 10.1269 23.714 10.1333Z" fill="#EB4335"/>
<path fill-rule="evenodd" clip-rule="evenodd" d="M23.714 37.8674C20.7949 37.8738 17.9485 36.9576 15.5811 35.2497C13.2138 33.5418 11.4466 31.1296 10.532 28.3574L2.62305 34.3954C4.56227 38.3301 7.56712 41.6414 11.2956 43.9524C15.0241 46.2634 19.3265 47.4812 23.713 47.4674C29.445 47.4674 34.918 45.4314 39.025 41.6184L31.518 35.8144C29.4 37.1494 26.732 37.8674 23.714 37.8674Z" fill="#34A853"/>
<path fill-rule="evenodd" clip-rule="evenodd" d="M46.1449 24.0004C46.1449 22.6134 45.9319 21.1204 45.6109 19.7334H23.7139V28.8004H36.3179C35.6879 31.8914 33.9719 34.2684 31.5179 35.8144L39.0249 41.6184C43.3389 37.6144 46.1449 31.6494 46.1449 24.0004Z" fill="#4285F4"/>
</g>
<defs>
<clipPath id="clip0_673_32">
<rect width="47" height="48" fill="white"/>
</clipPath>
</defs>
</svg>
