<svg width="92" height="85" viewBox="0 0 92 85" fill="none" xmlns="http://www.w3.org/2000/svg">
<path d="M45.9457 0.000864136C1.86069 -0.231136 -18.5803 46.3119 21.5117 66.9879C20.8067 69.4169 16.9847 82.6179 16.8317 83.6549C16.7227 84.4659 17.3407 85.1459 18.3427 84.7979C19.7907 84.5949 35.1227 73.8249 37.7767 71.9549C101.35 79.5639 113.868 2.92086 45.9457 0.000864136Z" fill="#3D1D1C"/>
<path d="M23.1708 46.3877C23.0848 49.7207 17.9548 49.7337 17.8638 46.3877V30.6247H13.7238C10.2948 30.5377 10.2878 25.5177 13.7238 25.4287H27.3108C30.7418 25.5197 30.7458 30.5337 27.3108 30.6247H23.1708V46.3877ZM45.4708 48.5207C44.2798 49.1487 41.9758 48.9957 41.5758 47.7147L40.2618 44.2747H32.1708L30.8558 47.7167C30.4578 48.9957 28.1528 49.1497 26.9628 48.5207C26.2308 48.1837 25.5278 47.2557 26.3338 44.7527L32.6808 28.0477C33.9798 24.6217 38.4468 24.6067 39.7538 28.0507L46.0978 44.7487C46.9048 47.2567 46.2018 48.1847 45.4708 48.5207ZM58.8808 48.5347H50.3678C48.9658 48.5347 47.8248 47.4437 47.8248 46.1027V28.0817C47.9158 24.5897 53.1488 24.5787 53.2418 28.0817V43.6697H58.8808C62.2298 43.7527 62.2368 48.4497 58.8808 48.5347ZM79.6518 46.5367C79.4158 48.8117 76.2188 49.6497 74.9068 47.7677L68.6848 39.5227L67.7638 40.4437V46.2327C67.6768 49.7247 62.5478 49.7377 62.4558 46.2337V28.0817C62.5478 24.5867 67.6688 24.5797 67.7628 28.0817V33.7847L75.1658 26.3817C76.0538 25.4807 77.5978 25.6747 78.4638 26.5747C79.3648 27.4307 79.5598 28.9927 78.6588 29.8727L72.6118 35.9187L79.1428 44.5717C79.5678 45.1317 79.7508 45.8397 79.6518 46.5367Z" fill="#FFE812"/>
<path d="M33.5664 39.5759H38.8664L36.2164 32.0469L33.5664 39.5759Z" fill="#3D1D1C"/>
</svg>
