<svg width="806" height="511" viewBox="0 0 806 511" fill="none" xmlns="http://www.w3.org/2000/svg">
<path fill-rule="evenodd" clip-rule="evenodd" d="M467.004 23.2351C470.009 23.2351 472.555 22.1371 474.676 19.9777C476.762 17.8183 477.822 15.1465 477.822 12.0355C477.822 8.92452 476.762 6.28932 474.676 4.09333C472.59 1.93393 470.009 0.835938 467.004 0.835938C463.999 0.835938 461.453 1.93393 459.332 4.09333C457.246 6.25272 456.186 8.92452 456.186 12.0355C456.186 15.1465 457.246 17.7817 459.332 19.9777C461.418 22.1371 463.999 23.2351 467.004 23.2351ZM377.548 59.9293C381.394 59.9208 384.5 56.9196 386.865 50.9258L389.517 44.1548H397.613C393.159 49.3154 390.047 53.6708 388.28 57.1844C386.512 60.6979 385.628 64.3945 385.628 68.1277C385.628 74.0203 387.29 78.8515 390.578 82.5481C393.866 86.2447 398.108 88.1113 403.305 88.1113H418.543C422.679 88.1113 425.932 87.1963 428.23 85.3663C430.528 83.5363 431.695 80.9743 431.695 77.6437C431.695 72.9223 428.407 70.5433 421.831 70.5433H412.038C407.265 70.5433 404.896 68.3107 404.896 63.8455C404.896 59.3803 409.033 53.0852 417.27 44.9234L418.119 44.1182C426.745 44.1182 431.023 40.7144 431.023 33.9068C431.023 28.9658 427.629 26.5136 420.841 26.5136L402.633 26.5136C400.194 26.5136 398.674 26.3672 398.037 26.0378C397.401 25.7084 396.941 24.9032 396.623 23.6222L395.987 21.1335C395.103 17.3637 392.734 15.4971 388.916 15.4971C385.098 15.4971 382.022 18.2055 379.901 23.6222L371.097 46.0946C369.966 49.0592 369.4 51.1454 369.4 52.3898C369.4 54.5492 370.178 56.3426 371.734 57.77C373.285 59.23 375.223 59.9256 377.548 59.9293ZM377.548 59.9293L377.567 59.9293H377.532L377.548 59.9293ZM449.811 88.1264C445.25 88.1264 441.644 87.1748 439.028 85.235C436.412 83.2952 435.104 80.66 435.104 77.3295C435.104 75.5361 435.634 73.3035 436.73 70.5585L449.563 37.8748L450.412 35.6056C452.816 29.53 456.634 26.4922 461.937 26.4922C464.129 26.4922 466.003 27.2608 467.594 28.7614C469.185 30.262 469.963 32.0554 469.963 34.1416C469.963 35.8618 469.291 38.497 467.877 42.0471L456.74 70.5585H465.544C472.084 70.5585 475.337 72.9375 475.337 77.7321C475.337 80.9894 474.17 83.5514 471.872 85.3814C469.574 87.2114 466.321 88.1264 462.185 88.1264H449.811ZM508.758 385.649L454.878 384.295L523.536 206.969L527.779 196.245C529.759 191.267 530.749 186.692 530.749 182.483C530.749 175.859 528.203 170.222 523.077 165.574C517.95 160.926 511.728 158.583 504.339 158.583C493.768 158.583 482.349 164.769 470.187 177.14L414.786 233.54L403.508 189.584C400.539 178.128 397.074 170.076 393.079 165.501C389.968 161.951 386.008 159.791 381.164 158.986C462.267 158.217 545.067 157.119 545.067 153.02C545.067 150.715 512.364 147.055 467.677 142.992C470.611 141.382 473.015 138.271 474.853 133.586L495.147 81.8701C497.268 84.5419 499.319 86.2621 501.334 87.0307C503.314 87.7993 506.991 88.1653 512.258 88.1653C517.173 88.1653 521.026 87.6529 523.784 86.6281C526.542 85.6033 529.193 83.7367 531.809 80.9917C539.729 72.6835 543.724 61.8865 543.724 48.7106C543.724 41.72 542.062 36.1202 538.703 31.838C535.345 27.5558 530.961 25.433 525.516 25.433C520.072 25.433 515.829 27.4094 512.223 31.3988C510.314 28.178 507.698 26.5676 504.445 26.5676C499.743 26.5676 496.42 28.9832 494.475 33.8144L456.964 129.487C455.656 132.854 455.02 135.379 455.02 137.063C455.02 139.003 455.727 140.65 457.141 142.04C424.296 139.132 386.242 136.059 350.29 133.156C312.482 130.103 276.997 127.237 252.333 124.948L283.056 46.5512H316.678C327.391 46.5512 335.77 44.1722 341.78 39.3776C347.825 34.583 350.83 27.995 350.83 19.577C350.83 12.0741 348.25 6.84027 343.088 3.91228L330.148 0.837891L204.004 0.837891C193.292 0.837891 184.913 3.21688 178.902 8.01147C172.857 12.8061 169.852 19.394 169.852 27.812C169.852 40.2926 178.337 46.5512 195.342 46.5512H231.368L203.438 117.848C185.923 116.307 158.647 116.31 151.143 116.311L150.69 116.311C130.608 116.311 110.315 120.703 89.7387 129.487C69.1625 138.271 52.051 149.873 38.4042 164.293C12.8076 191.194 0.0800781 222.56 0.0800781 258.355C0.0800781 285.512 8.17622 307.508 24.3685 324.418C40.5608 341.29 61.632 349.745 87.6174 349.745C106.249 349.745 123.255 345.28 138.669 336.422C119.861 360.725 110.421 388.175 110.421 418.809C110.421 445.966 118.482 467.962 134.603 484.872C150.725 501.781 171.725 510.199 197.569 510.199C221.822 510.199 243.318 502.696 262.02 487.653C274.96 477.186 285.46 464.888 293.592 450.651C301.723 436.45 313.532 409.586 329.052 370.058L374.129 254.951L379.291 278.668C382.26 292.832 388.695 299.896 398.665 299.896C406.301 299.896 414.362 295.101 422.847 285.549L458.484 245.984L411.004 361.091C405.842 373.828 403.261 383.526 403.261 390.151C403.261 400.472 406.726 408.414 413.69 413.941C420.655 419.468 430.519 422.249 443.317 422.249H478.424C488.983 422.249 497.252 421.97 504.71 421.719L505.258 421.7C506.707 421.653 513.82 421.589 524.958 421.489L524.979 421.489C592.152 420.886 805.523 418.97 805.523 411.562C805.523 401.724 621.144 391.838 542.609 387.627C524.435 386.652 511.93 385.982 508.688 385.686L508.758 385.649ZM506.672 52.4804C506.814 52.0046 507.026 51.419 507.309 50.7236C509.607 44.4284 513.354 41.3174 518.587 41.3174C523.36 41.3174 525.728 43.916 525.728 49.1132C525.728 55.1887 523.642 61.0813 519.435 66.8275C517.349 69.6823 514.486 71.1097 510.809 71.1097C508.263 71.1097 506.425 70.7437 505.258 70.0483C504.092 69.3529 502.854 67.8157 501.546 65.4733L506.672 52.517V52.4804ZM92.4256 299.273C79.9809 299.273 70.1524 295.138 62.8694 286.83C55.5864 278.521 51.9802 267.249 51.9802 252.975C51.9802 238.701 55.6217 225.891 62.8694 213.41C70.117 200.93 80.0516 190.718 92.6024 182.813C107.487 173.516 127.25 167.697 151.892 165.428C155.939 165.009 167.225 164.845 179.859 164.662L179.901 164.661C181.599 164.637 183.322 164.612 185.054 164.586L167.412 209.604C154.366 242.873 142.311 266.151 131.209 279.4C120.143 292.649 107.204 299.273 92.4256 299.273ZM350.866 183.252L277.541 370.058C264.354 403.437 252.263 426.751 241.267 439.927C230.237 453.103 217.297 459.727 202.378 459.727C189.933 459.727 180.14 455.555 172.998 447.21C165.857 438.866 162.286 427.41 162.286 412.88C162.286 399.228 165.963 386.162 173.281 373.681C180.599 361.201 190.499 351.062 202.908 343.267C217.934 333.97 237.697 328.151 262.197 325.882C272.768 324.857 279.91 322.954 283.622 320.135C290.021 315.304 293.238 308.972 293.238 301.213C293.238 293.454 290.233 287.891 284.188 283.426C278.142 278.961 270.081 276.728 260.005 276.728C240.171 276.728 220.055 281.157 199.62 290.014C190.887 293.784 182.827 298.102 175.367 302.897C178.372 298.834 181.13 294.589 183.675 290.16C191.807 275.959 203.615 249.095 219.136 209.567L238.121 161.109C259.112 159.992 307.468 159.564 359.783 159.1L359.859 159.099C364.087 159.062 368.341 159.024 372.609 158.986C363.699 160.853 356.487 168.941 350.901 183.215L350.866 183.252ZM504.896 357.611C504.896 347.4 508.326 338.287 515.114 330.235L515.149 330.198C521.937 322.146 529.645 318.12 538.2 318.12C544.776 318.12 549.549 320.499 552.589 325.22C555.135 321.231 558.494 319.255 562.666 319.255C564.928 319.255 566.802 319.987 568.322 321.487C569.842 322.951 570.585 324.781 570.585 326.977C570.585 328.478 570.161 330.235 569.347 332.321L568.499 334.48L557.398 362.845H565.883C572.353 362.845 575.57 365.188 575.57 369.872C575.57 373.13 574.403 375.655 572.105 377.485C569.807 379.315 566.625 380.23 562.559 380.23H552.696C548.276 380.23 545.271 378.437 543.68 374.887C539.827 378.437 536.114 380.23 532.508 380.23H523.74C518.119 380.23 513.558 378.144 510.094 373.972C506.629 369.799 504.896 364.346 504.896 357.611ZM546.261 339.604C546.261 338.177 545.554 336.932 544.211 335.871L544.246 335.908C542.902 334.846 541.276 334.297 539.367 334.297C535.619 334.297 531.978 336.566 528.443 341.068C524.907 345.57 523.139 350.255 523.139 355.086C523.139 360.539 525.296 363.284 529.538 363.284H531.448C535.655 363.284 538.448 361.491 539.827 357.941L545.2 344.143C545.908 342.349 546.261 340.812 546.261 339.604ZM616.173 336.664C620.239 336.664 623.42 335.749 625.719 333.955C628.017 332.162 629.183 329.636 629.183 326.379C629.183 321.658 625.931 319.279 619.39 319.279H617.021L619.885 312.983C621.229 309.909 621.9 307.347 621.9 305.334C621.9 303.321 621.158 301.491 619.638 300.027C618.117 298.563 616.314 297.831 614.193 297.831C608.996 297.831 605.213 300.796 602.809 306.688L601.96 308.848L597.895 319.279H594.359C590.258 319.279 587.076 320.194 584.778 322.024C582.48 323.854 581.349 326.416 581.349 329.71C581.349 334.321 584.213 336.627 589.975 336.627H591.142L582.056 359.831L580.606 363.345C579.687 365.724 579.228 367.92 579.228 369.896C579.228 373.08 580.359 375.606 582.657 377.472C584.955 379.339 588.031 380.254 591.92 380.254H605.708C609.809 380.254 612.991 379.339 615.289 377.546C617.587 375.752 618.718 373.227 618.718 369.969C618.718 365.248 615.466 362.869 608.925 362.869H600.299L610.622 336.664H616.173ZM672.664 380.217H650.921C642.789 380.217 636.638 378.131 632.395 373.995C628.153 369.859 626.031 363.82 626.031 355.841C626.031 345.594 629.39 336.736 636.072 329.307C642.754 321.877 650.744 318.144 659.971 318.144C666.689 318.144 672.098 319.974 676.164 323.597C680.229 327.22 682.28 332.015 682.28 337.981C682.28 345.118 679.452 350.461 673.795 353.902C670.684 355.878 666.017 356.866 659.795 356.866H644.416C644.416 360.856 647.315 362.832 653.113 362.832H675.987C682.457 362.832 685.674 365.211 685.674 369.932C685.674 373.19 684.543 375.715 682.245 377.509C679.947 379.302 676.765 380.217 672.664 380.217ZM664.567 338.603C664.426 335.785 662.658 334.394 659.264 334.394V334.357C654.527 334.357 650.815 337.029 648.092 342.336H656.577C662.057 342.336 664.709 341.092 664.567 338.603Z" fill="#FF7F50"/>
</svg>
