<svg width="60" height="38" viewBox="0 0 60 38" fill="none" xmlns="http://www.w3.org/2000/svg">
<path fill-rule="evenodd" clip-rule="evenodd" d="M37.8931 28.7082L33.8794 28.6072L38.9939 15.378L39.31 14.578C39.4575 14.2067 39.5312 13.8653 39.5312 13.5513C39.5312 13.0571 39.3416 12.6366 38.9597 12.2899C38.5778 11.9431 38.1143 11.7683 37.5639 11.7683C36.7764 11.7683 35.9257 12.2298 35.0198 13.1527L30.8928 17.3604L30.0527 14.0811C29.8314 13.2264 29.5733 12.6257 29.2757 12.2844C29.044 12.0195 28.749 11.8584 28.3882 11.7984C34.4298 11.741 40.5978 11.6591 40.5978 11.3533C40.5978 11.1813 38.1617 10.9082 34.8328 10.6052C35.0514 10.485 35.2304 10.2529 35.3674 9.90343L36.8791 6.04527C37.0371 6.24459 37.1899 6.37293 37.34 6.43026C37.4875 6.48761 37.7614 6.51491 38.1538 6.51491C38.5199 6.51491 38.807 6.47668 39.0124 6.40023C39.2178 6.32378 39.4153 6.18452 39.6102 5.97974C40.2002 5.35992 40.4978 4.55443 40.4978 3.57146C40.4978 3.04994 40.374 2.63218 40.1238 2.31271C39.8736 1.99325 39.547 1.83488 39.1414 1.83488C38.7358 1.83488 38.4198 1.98232 38.1512 2.27995C38.009 2.03966 37.8141 1.91952 37.5718 1.91952C37.2215 1.91952 36.9739 2.09973 36.8291 2.46016L34.0348 9.59762C33.9373 9.84882 33.8899 10.0372 33.8899 10.1628C33.8899 10.3075 33.9426 10.4304 34.0479 10.5342C31.6012 10.3172 28.7665 10.088 26.0883 9.87136L26.0881 9.87135C23.2717 9.64357 20.6284 9.42978 18.7911 9.25904L21.0798 3.41036H23.5844C24.3824 3.41036 25.0066 3.23288 25.4543 2.87519C25.9047 2.5175 26.1285 2.02601 26.1285 1.398C26.1285 0.838255 25.9363 0.447798 25.5518 0.22936L24.5878 0H15.1909C14.3929 0 13.7688 0.177481 13.321 0.535173C12.8707 0.892865 12.6468 1.38435 12.6468 2.01236C12.6468 2.94345 13.2789 3.41036 14.5457 3.41036H17.2294L15.1488 8.72932C13.844 8.61437 11.8121 8.61458 11.2531 8.61464L11.2194 8.61464C9.72346 8.61464 8.21175 8.9423 6.67896 9.59762C5.14617 10.2529 3.87148 11.1185 2.85489 12.1943C0.948117 14.2012 0 16.5412 0 19.2116C0 21.2376 0.603108 22.8786 1.80932 24.1401C3.01554 25.3989 4.5852 26.0296 6.52094 26.0296C7.90887 26.0296 9.17566 25.6965 10.3239 25.0357C8.92283 26.8487 8.21965 28.8966 8.21965 31.182C8.21965 33.208 8.82012 34.849 10.0211 36.1105C11.222 37.372 12.7864 38 14.7116 38C16.5183 38 18.1196 37.4403 19.5128 36.318C20.4767 35.5371 21.2589 34.6197 21.8646 33.5575C22.4704 32.4981 23.35 30.4939 24.5062 27.545L27.8641 18.9577L28.2486 20.727C28.4698 21.7837 28.9492 22.3107 29.6919 22.3107C30.2607 22.3107 30.8612 21.953 31.4933 21.2404L34.148 18.2887L30.611 26.8761C30.2265 27.8263 30.0342 28.5498 30.0342 29.044C30.0342 29.814 30.2923 30.4066 30.8112 30.8189C31.33 31.2312 32.0648 31.4387 33.0182 31.4387H35.6334C36.4199 31.4387 37.0359 31.4179 37.5914 31.3991L37.5915 31.3991L37.6323 31.3977C37.7402 31.3942 38.2693 31.3895 39.0978 31.382L39.1008 31.382L39.1014 31.382C44.1052 31.337 60 31.194 60 30.6414C60 29.9074 46.2651 29.1699 40.4147 28.8557C39.0609 28.783 38.1293 28.733 37.8878 28.7109L37.8931 28.7082ZM37.7377 3.8527C37.7482 3.8172 37.764 3.77351 37.7851 3.72164C37.9563 3.25199 38.2354 3.0199 38.6252 3.0199C38.9808 3.0199 39.1572 3.21377 39.1572 3.60149C39.1572 4.05475 39.0018 4.49436 38.6884 4.92304C38.5331 5.13602 38.3197 5.24251 38.0458 5.24251C37.8562 5.24251 37.7192 5.2152 37.6323 5.16333C37.5454 5.11145 37.4533 4.99677 37.3558 4.82202L37.7377 3.85543V3.8527ZM6.87912 22.2643C5.95207 22.2643 5.21991 21.9557 4.67738 21.3359C4.13484 20.7161 3.86621 19.8751 3.86621 18.8102C3.86621 17.7453 4.13748 16.7897 4.67738 15.8586C5.21728 14.9275 5.95733 14.1657 6.89228 13.5759C8.00105 12.8824 9.47327 12.4482 11.3089 12.2789C11.6104 12.2477 12.4512 12.2355 13.3922 12.2218H13.3922H13.3923H13.3923L13.7793 12.2161L12.4651 15.5746C11.4933 18.0566 10.5952 19.7932 9.76824 20.7816C8.9439 21.7701 7.97998 22.2643 6.87912 22.2643ZM26.1312 13.6087L20.6689 27.545C19.6866 30.0352 18.7859 31.7745 17.9668 32.7575C17.1451 33.7405 16.1812 34.2347 15.0698 34.2347C14.1427 34.2347 13.4132 33.9234 12.8812 33.3009C12.3492 32.6783 12.0832 31.8237 12.0832 30.7397C12.0832 29.7212 12.3571 28.7464 12.9023 27.8153C13.4475 26.8842 14.1849 26.1279 15.1093 25.5463C16.2286 24.8528 17.7008 24.4186 19.5259 24.2493C20.3134 24.1729 20.8454 24.0309 21.1219 23.8207C21.5986 23.4602 21.8383 22.9879 21.8383 22.409C21.8383 21.8301 21.6144 21.4151 21.1641 21.082C20.7137 20.7489 20.1132 20.5823 19.3627 20.5823C17.8852 20.5823 16.3866 20.9127 14.8644 21.5735C14.2139 21.8547 13.6134 22.1769 13.0577 22.5346C13.2815 22.2315 13.487 21.9148 13.6766 21.5844C14.2823 20.525 15.162 18.5208 16.3181 15.5719L17.7324 11.9567C19.2961 11.8734 22.8982 11.8415 26.7953 11.8069L27.7509 11.7984C27.0872 11.9376 26.5499 12.5411 26.1338 13.606L26.1312 13.6087ZM34.7825 1.67105C35.0063 1.67105 35.1959 1.58914 35.354 1.42804C35.5094 1.26694 35.5884 1.06762 35.5884 0.835525C35.5884 0.603435 35.5094 0.406841 35.354 0.243012C35.1986 0.0819142 35.0063 0 34.7825 0C34.5586 0 34.369 0.0819142 34.211 0.243012C34.0556 0.40411 33.9766 0.603435 33.9766 0.835525C33.9766 1.06762 34.0556 1.26421 34.211 1.42804C34.3663 1.58914 34.5586 1.67105 34.7825 1.67105ZM28.1186 4.40952C28.4052 4.40892 28.6365 4.18502 28.8127 3.73782L29.0103 3.23269H29.6134C29.2815 3.61768 29.0498 3.94261 28.9181 4.20474C28.7864 4.46686 28.7206 4.74264 28.7206 5.02115C28.7206 5.46075 28.8443 5.82118 29.0893 6.09695C29.3342 6.37273 29.6502 6.51199 30.0374 6.51199H31.1725C31.4806 6.51199 31.7229 6.44372 31.8941 6.3072C32.0653 6.17068 32.1522 5.97954 32.1522 5.73107C32.1522 5.37884 31.9073 5.20136 31.4174 5.20136H30.6879C30.3324 5.20136 30.1559 5.0348 30.1559 4.70168C30.1559 4.36856 30.4641 3.89892 31.0777 3.29003L31.1409 3.22996C31.7835 3.22996 32.1022 2.97602 32.1022 2.46815C32.1022 2.09954 31.8494 1.9166 31.3437 1.9166H29.9874C29.8056 1.9166 29.6924 1.90568 29.645 1.8811C29.5976 1.85653 29.5633 1.79646 29.5396 1.70089L29.4922 1.51522C29.4264 1.23398 29.2499 1.09473 28.9655 1.09473C28.6811 1.09473 28.4519 1.29678 28.2939 1.70089L27.6381 3.3774C27.5539 3.59857 27.5117 3.75421 27.5117 3.84704C27.5117 4.00814 27.5697 4.14194 27.6855 4.24842C27.8011 4.35734 27.9454 4.40923 28.1186 4.40952ZM28.1186 4.40952L28.1201 4.40952H28.1175L28.1186 4.40952ZM33.5019 6.51218C33.1621 6.51218 32.8935 6.44119 32.6986 6.29647C32.5037 6.15176 32.4062 5.95516 32.4062 5.70669C32.4062 5.5729 32.4458 5.40634 32.5274 5.20155L33.4834 2.76324L33.5466 2.59395C33.7257 2.14069 34.0101 1.91406 34.4052 1.91406C34.5685 1.91406 34.7081 1.9714 34.8266 2.08335C34.9451 2.1953 35.003 2.32909 35.003 2.48473C35.003 2.61306 34.953 2.80966 34.8477 3.07451L34.018 5.20155H34.6738C35.1611 5.20155 35.4034 5.37903 35.4034 5.73673C35.4034 5.97974 35.3164 6.17087 35.1453 6.30739C34.9741 6.44392 34.7318 6.51218 34.4236 6.51218H33.5019ZM37.6055 26.6161C37.6055 25.8543 37.8609 25.1744 38.3666 24.5737L38.3692 24.571C38.8749 23.9703 39.449 23.6699 40.0864 23.6699C40.5762 23.6699 40.9318 23.8474 41.1583 24.1996C41.3479 23.902 41.5981 23.7546 41.9089 23.7546C42.0774 23.7546 42.217 23.8092 42.3303 23.9211C42.4435 24.0303 42.4988 24.1669 42.4988 24.3307C42.4988 24.4426 42.4672 24.5737 42.4066 24.7293L42.3434 24.8904L41.5165 27.0066H42.1485C42.6305 27.0066 42.8702 27.1813 42.8702 27.5308C42.8702 27.7738 42.7832 27.9622 42.6121 28.0987C42.4409 28.2353 42.2038 28.3035 41.901 28.3035H41.1662C40.837 28.3035 40.6131 28.1697 40.4946 27.9049C40.2075 28.1697 39.931 28.3035 39.6624 28.3035H39.0092C38.5905 28.3035 38.2507 28.1479 37.9926 27.8366C37.7345 27.5253 37.6055 27.1185 37.6055 26.6161ZM40.6869 25.2727C40.6869 25.1662 40.6342 25.0734 40.5341 24.9942L40.5367 24.9969C40.4367 24.9177 40.3155 24.8768 40.1733 24.8768C39.8941 24.8768 39.6229 25.0461 39.3595 25.3819C39.0961 25.7178 38.9644 26.0673 38.9644 26.4277C38.9644 26.8345 39.1251 27.0393 39.4411 27.0393H39.5833C39.8968 27.0393 40.1048 26.9055 40.2075 26.6407L40.6078 25.6113C40.6605 25.4775 40.6869 25.3628 40.6869 25.2727ZM45.8947 25.0523C46.1976 25.0523 46.4347 24.984 46.6058 24.8503C46.777 24.7165 46.8639 24.5281 46.8639 24.285C46.8639 23.9328 46.6216 23.7553 46.1344 23.7553H45.958L46.1713 23.2857C46.2714 23.0563 46.3214 22.8652 46.3214 22.715C46.3214 22.5648 46.2661 22.4283 46.1529 22.3191C46.0396 22.2099 45.9053 22.1553 45.7473 22.1553C45.3601 22.1553 45.0783 22.3764 44.8992 22.816L44.836 22.9771L44.5331 23.7553H44.2698C43.9643 23.7553 43.7273 23.8236 43.5561 23.9601C43.3849 24.0966 43.3006 24.2878 43.3006 24.5335C43.3006 24.8776 43.5139 25.0496 43.9432 25.0496H44.0301L43.3533 26.7807L43.2453 27.0428C43.1768 27.2203 43.1426 27.3841 43.1426 27.5316C43.1426 27.7691 43.2269 27.9575 43.398 28.0968C43.5692 28.236 43.7984 28.3043 44.0881 28.3043H45.1152C45.4207 28.3043 45.6577 28.236 45.8289 28.1022C46.0001 27.9685 46.0844 27.78 46.0844 27.537C46.0844 27.1848 45.8421 27.0073 45.3549 27.0073H44.7122L45.4813 25.0523H45.8947ZM50.1027 28.3037H48.483C47.8773 28.3037 47.419 28.1481 47.103 27.8396C46.7869 27.531 46.6289 27.0805 46.6289 26.4852C46.6289 25.7207 46.8791 25.0599 47.3769 24.5056C47.8746 23.9514 48.4698 23.6729 49.1572 23.6729C49.6576 23.6729 50.0606 23.8094 50.3634 24.0797C50.6663 24.35 50.8191 24.7077 50.8191 25.1528C50.8191 25.6852 50.6084 26.0839 50.187 26.3405C49.9552 26.488 49.6076 26.5617 49.1441 26.5617H47.9984C47.9984 26.8593 48.2144 27.0068 48.6463 27.0068H50.3503C50.8322 27.0068 51.0719 27.1842 51.0719 27.5365C51.0719 27.7795 50.9876 27.9679 50.8164 28.1017C50.6452 28.2355 50.4082 28.3037 50.1027 28.3037ZM49.4996 25.1992C49.4891 24.9889 49.3574 24.8852 49.1045 24.8852V24.8825C48.7516 24.8825 48.4751 25.0818 48.2723 25.4777H48.9044C49.3126 25.4777 49.5101 25.3849 49.4996 25.1992Z" fill="#FF7F50"/>
</svg>
