<?xml version="1.0" encoding="UTF-8"?>
<svg id="Layer_1" data-name="Layer 1" xmlns="http://www.w3.org/2000/svg" viewBox="0 0 227.84 139.17">
  <defs>
    <style>
      .cls-1 {
        fill: coral;
        stroke-width: 0px;
      }
    </style>
  </defs>
  <path class="cls-1" d="m129.28,38.57c-19.06-1.63-44.32-3.45-57.93-4.67l8.69-21.42h9.51c3.03,0,5.4-.65,7.1-1.96,1.71-1.31,2.56-3.11,2.56-5.41,0-2.05-.73-3.48-2.19-4.28l-3.66-.84h-35.68c-3.03,0-5.4.65-7.1,1.96-1.71,1.31-2.56,3.11-2.56,5.41,0,3.41,2.4,5.12,7.21,5.12h10.19l-7.9,19.48c-5.06-.43-13-.42-14.92-.42-5.68,0-11.42,1.2-17.24,3.6-5.82,2.4-10.66,5.57-14.52,9.51C3.6,52.01,0,60.58,0,70.36c0,7.42,2.29,13.43,6.87,18.05,4.58,4.61,10.54,6.92,17.89,6.92,5.27,0,10.08-1.22,14.44-3.64-5.32,6.64-7.99,14.14-7.99,22.51,0,7.42,2.28,13.43,6.84,18.05,4.56,4.61,10.5,6.92,17.81,6.92,6.86,0,12.94-2.05,18.23-6.16,3.66-2.86,6.63-6.22,8.93-10.11,2.3-3.88,5.64-11.22,10.03-22.02l12.75-31.45,1.46,6.48c.84,3.87,2.66,5.8,5.48,5.8,2.16,0,4.44-1.31,6.84-3.92l10.08-10.81-13.43,31.45c-1.46,3.48-2.19,6.13-2.19,7.94,0,2.82.98,4.99,2.95,6.5,1.97,1.51,4.76,2.27,8.38,2.27h9.93c3.06,0,5.44-.08,7.59-.15,2.88-.09,84.93-.41,84.93-2.77,0-3.31-79.08-6.64-83.96-7.07l-15.24-.37,19.42-48.45,1.2-2.93c.56-1.36.84-2.61.84-3.76,0-1.81-.72-3.35-2.17-4.62-1.45-1.27-3.21-1.91-5.3-1.91-2.99,0-6.22,1.69-9.66,5.07l-15.67,15.41-3.19-12.01c-.84-3.13-1.82-5.33-2.95-6.58-.88-.97-2-1.56-3.37-1.78,22.94-.21,46.36-.51,46.36-1.63,0-.63-9.25-1.63-21.89-2.74M26.12,81.54c-3.52,0-6.3-1.13-8.36-3.4s-3.08-5.35-3.08-9.25,1.03-7.4,3.08-10.81,4.86-6.2,8.41-8.36c4.21-2.54,9.8-4.13,16.77-4.75,1.3-.13,5.24-.17,9.38-.23l-4.99,12.3c-3.69,9.09-7.1,15.45-10.24,19.07-3.13,3.62-6.79,5.43-10.97,5.43Zm73.1-31.7l-20.74,51.04c-3.73,9.12-7.15,15.49-10.26,19.09-3.12,3.6-6.78,5.41-11,5.41-3.52,0-6.29-1.14-8.31-3.42-2.02-2.28-3.03-5.41-3.03-9.38,0-3.73,1.04-7.3,3.11-10.71,2.07-3.41,4.87-6.18,8.38-8.31,4.25-2.54,9.84-4.13,16.77-4.75,2.99-.28,5.01-.8,6.06-1.57,1.81-1.32,2.72-3.05,2.72-5.17s-.85-3.64-2.56-4.86c-1.71-1.22-3.99-1.83-6.84-1.83-5.61,0-11.3,1.21-17.08,3.63-2.47,1.03-4.75,2.21-6.86,3.52.85-1.11,1.63-2.27,2.35-3.48,2.3-3.88,5.64-11.22,10.03-22.02l5.37-13.24c6.42-.33,21.89-.44,38.04-.58-2.52.51-4.56,2.72-6.14,6.62Z"/>
</svg>